<svg id="visual" viewBox="0 0 900 600" width="900" height="600" xmlns="http://www.w3.org/2000/svg" xmlns:xlink="http://www.w3.org/1999/xlink" version="1.1"><path d="M0 121L82 181L164 163L245 121L327 199L409 115L491 169L573 289L655 187L736 193L818 115L900 223L900 0L818 0L736 0L655 0L573 0L491 0L409 0L327 0L245 0L164 0L82 0L0 0Z" fill="#865dff"></path><path d="M0 343L82 343L164 385L245 307L327 409L409 343L491 373L573 385L655 331L736 415L818 367L900 367L900 221L818 113L736 191L655 185L573 287L491 167L409 113L327 197L245 119L164 161L82 179L0 119Z" fill="#ab85ff"></path><path d="M0 469L82 457L164 475L245 427L327 493L409 457L491 427L573 481L655 397L736 469L818 433L900 415L900 365L818 365L736 413L655 329L573 383L491 371L409 341L327 407L245 305L164 383L82 341L0 341Z" fill="#caadff"></path><path d="M0 511L82 541L164 511L245 523L327 529L409 541L491 505L573 553L655 487L736 505L818 481L900 499L900 413L818 431L736 467L655 395L573 479L491 425L409 455L327 491L245 425L164 473L82 455L0 467Z" fill="#e6d6ff"></path><path d="M0 601L82 601L164 601L245 601L327 601L409 601L491 601L573 601L655 601L736 601L818 601L900 601L900 497L818 479L736 503L655 485L573 551L491 503L409 539L327 527L245 521L164 509L82 539L0 509Z" fill="#ffffff"></path></svg>